<svg width="70" height="70" viewBox="0 0 70 70" fill="none" xmlns="http://www.w3.org/2000/svg">
<rect x="0.5" y="0.5" width="69" height="69" rx="34.5" fill="white" stroke="#00C06B"/>
<g clip-path="url(#clip0_6450_85)">
<path d="M55 35.4432C55 33.8034 54.8639 32.6069 54.5692 31.366H35.4082V38.7669H46.6553C46.4286 40.6062 45.2041 43.376 42.483 45.2372L42.4448 45.485L48.5032 50.0713L48.9229 50.1123C52.7777 46.6333 55 41.5146 55 35.4432Z" fill="#4285F4"/>
<path d="M35.4081 54.9429C40.9182 54.9429 45.544 53.1701 48.9228 50.1123L42.4829 45.2372C40.7596 46.4117 38.4466 47.2315 35.4081 47.2315C30.0113 47.2315 25.4308 43.7527 23.798 38.9443L23.5587 38.9641L17.2591 43.7283L17.1768 43.9521C20.5327 50.4667 27.4262 54.9429 35.4081 54.9429Z" fill="#34A853"/>
<path d="M23.7981 38.9443C23.3673 37.7034 23.1179 36.3738 23.1179 35C23.1179 33.6261 23.3673 32.2966 23.7754 31.0557L23.764 30.7914L17.3855 25.9508L17.1768 26.0478C15.7937 28.7512 15 31.787 15 35C15 38.213 15.7937 41.2487 17.1768 43.952L23.7981 38.9443Z" fill="#FBBC05"/>
<path d="M35.4081 22.7683C39.2402 22.7683 41.8252 24.3859 43.2992 25.7377L49.0588 20.2423C45.5215 17.0293 40.9182 15.0571 35.4081 15.0571C27.4262 15.0571 20.5327 19.5332 17.1768 26.0478L23.7754 31.0557C25.4308 26.2473 30.0113 22.7683 35.4081 22.7683Z" fill="#EB4335"/>
</g>
<defs>
<clipPath id="clip0_6450_85">
<rect width="40" height="40" fill="white" transform="translate(15 15)"/>
</clipPath>
</defs>
</svg>
