<svg width="279" height="259" viewBox="0 0 279 259" fill="none" xmlns="http://www.w3.org/2000/svg">
<path d="M206.376 242.198C246.485 242.198 279 245.959 279 250.599C279 255.239 246.485 259 206.376 259C166.267 259 133.752 255.239 133.752 250.599C133.752 245.959 166.267 242.198 206.376 242.198Z" fill="#F5F5F5"/>
<path d="M60.6595 78.6476H128.927C129.889 78.6476 130.669 79.3919 130.669 80.31V107.479C130.669 108.397 129.889 109.142 128.927 109.142H60.6595C59.6975 109.142 58.9175 108.397 58.9175 107.479V80.31C58.9175 79.3919 59.6975 78.6476 60.6595 78.6476Z" fill="#00C06B"/>
<path d="M104.102 73.794H85.4762C82.5357 73.7896 80.1536 71.5164 80.1489 68.7104V64.1463C80.1536 61.3403 82.5357 59.0672 85.4762 59.0627H104.102C107.044 59.0627 109.43 61.3388 109.43 64.1463V68.6882C109.443 71.4956 107.068 73.7814 104.126 73.794C104.118 73.794 104.11 73.794 104.102 73.794ZM85.4762 62.7956C84.697 62.8038 84.0655 63.4027 84.053 64.1463V68.6882C84.053 69.4466 84.697 70.0611 85.4918 70.0611H104.118C104.913 70.0611 105.557 69.4466 105.557 68.6882V64.1463C105.557 63.3879 104.913 62.7734 104.118 62.7734L85.4762 62.7956Z" fill="#00C06B"/>
<g opacity="0.2">
<path d="M128.919 78.6476H60.6673C59.7053 78.6431 58.9221 79.3845 58.9175 80.3025C58.9175 80.3047 58.9175 80.3077 58.9175 80.3099V89.03L94.4588 95.7091C94.6765 95.7544 94.9021 95.7544 95.1198 95.7091L130.669 89.03V80.3099C130.669 79.3919 129.889 78.6476 128.927 78.6476C128.925 78.6476 128.921 78.6476 128.919 78.6476Z" fill="black"/>
</g>
<path d="M130.716 87.1524L95.1046 93.8316C94.8837 93.8687 94.6566 93.8687 94.4358 93.8316L58.8245 87.1524C58.018 87.0002 57.4355 86.3264 57.4324 85.542V69.1409C57.4324 68.2347 58.2015 67.5008 59.1511 67.5008H130.405C131.354 67.5008 132.124 68.2347 132.124 69.1409V85.5716C132.107 86.3509 131.519 87.0114 130.716 87.1524Z" fill="#00C06B"/>
<path d="M91.1148 89.3862H98.4797C99.3904 89.3862 100.128 90.0905 100.128 90.9595V95.4049C100.128 96.2739 99.3904 96.9782 98.4797 96.9782H91.1148C90.2041 96.9782 89.4661 96.2739 89.4661 95.4049V90.9595C89.4661 90.0905 90.2041 89.3862 91.1148 89.3862Z" fill="#00C06B"/>
<g opacity="0.4">
<path d="M91.1148 89.3862H98.4797C99.3904 89.3862 100.128 90.0905 100.128 90.9595V95.4049C100.128 96.2739 99.3904 96.9782 98.4797 96.9782H91.1148C90.2041 96.9782 89.4661 96.2739 89.4661 95.4049V90.9595C89.4661 90.0905 90.2041 89.3862 91.1148 89.3862Z" fill="black"/>
</g>
<path d="M49.7657 40.413H2.25546C1.58508 40.413 1.04224 39.895 1.04224 39.2553V20.3458C1.04224 19.7061 1.58508 19.1881 2.25546 19.1881H49.7657C50.4361 19.1881 50.9789 19.7061 50.9789 20.3458V39.2553C50.9789 39.895 50.4361 40.413 49.7657 40.413Z" fill="#00C06B"/>
<g opacity="0.6">
<path d="M49.7657 40.413H2.25546C1.58508 40.413 1.04224 39.895 1.04224 39.2553V20.3458C1.04224 19.7061 1.58508 19.1881 2.25546 19.1881H49.7657C50.4361 19.1881 50.9789 19.7061 50.9789 20.3458V39.2553C50.9789 39.895 50.4361 40.413 49.7657 40.413Z" fill="white"/>
</g>
<g opacity="0.1">
<path d="M2.26327 19.1955H49.7657C50.4361 19.1955 50.979 19.7135 50.979 20.3532V26.4164L26.2167 31.0622C26.0651 31.0918 25.9095 31.0918 25.7579 31.0622L1.05005 26.4164V20.3532C1.05005 19.7135 1.59289 19.1955 2.26327 19.1955Z" fill="black"/>
</g>
<path d="M1.22878 11.4328H15.7408V9.10995C15.7447 7.11139 17.4417 5.49206 19.5361 5.48835H32.5005C34.6011 5.47574 36.3136 7.09061 36.3268 9.09511C36.3268 9.1003 36.3268 9.10475 36.3268 9.10995V11.4328H50.8311C51.4929 11.4328 52.0287 11.9441 52.0287 12.5757V24.0119C52.0287 24.5574 51.6251 25.0264 51.0644 25.1325L26.2166 29.756C26.0626 29.7857 25.9039 29.7857 25.7499 29.756L0.96436 25.1029C0.403632 24.9967 0 24.5277 0 23.9822V12.5757C0 11.9441 0.535064 11.4321 1.1969 11.4321C1.207 11.4321 1.21867 11.4328 1.22878 11.4328ZM33.4104 9.10995C33.4104 8.62905 33.0044 8.23795 32.5005 8.23424H19.5361C19.0337 8.23795 18.6269 8.62311 18.6184 9.10253V11.4254H33.3948L33.4104 9.10995Z" fill="#00C06B"/>
<g opacity="0.6">
<path d="M1.22878 11.4328H15.7408V9.10995C15.7447 7.11139 17.4417 5.49206 19.5361 5.48835H32.5005C34.6011 5.47574 36.3136 7.09061 36.3268 9.09511C36.3268 9.1003 36.3268 9.10475 36.3268 9.10995V11.4328H50.8311C51.4929 11.4328 52.0287 11.9441 52.0287 12.5757V24.0119C52.0287 24.5574 51.6251 25.0264 51.0644 25.1325L26.2166 29.756C26.0626 29.7857 25.9039 29.7857 25.7499 29.756L0.96436 25.1029C0.403632 24.9967 0 24.5277 0 23.9822V12.5757C0 11.9441 0.535064 11.4321 1.1969 11.4321C1.207 11.4321 1.21867 11.4328 1.22878 11.4328ZM33.4104 9.10995C33.4104 8.62905 33.0044 8.23795 32.5005 8.23424H19.5361C19.0337 8.23795 18.6269 8.62311 18.6184 9.10253V11.4254H33.3948L33.4104 9.10995Z" fill="white"/>
</g>
<path d="M28.573 31.9453H23.4557C22.8203 31.9453 22.3047 31.4532 22.3047 30.8469V27.7597C22.3047 27.1533 22.8203 26.6613 23.4557 26.6613H28.573C29.2084 26.6613 29.724 27.1533 29.724 27.7597V30.8469C29.724 31.4532 29.2084 31.9453 28.573 31.9453Z" fill="#00C06B"/>
<g opacity="0.3">
<path d="M28.573 31.9453H23.4557C22.8203 31.9453 22.3047 31.4532 22.3047 30.8469V27.7597C22.3047 27.1533 22.8203 26.6613 23.4557 26.6613H28.573C29.2084 26.6613 29.724 27.1533 29.724 27.7597V30.8469C29.724 31.4532 29.2084 31.9453 28.573 31.9453Z" fill="white"/>
</g>
<path d="M49.7657 103.494H2.25546C1.58508 103.494 1.04224 102.976 1.04224 102.336V83.4269C1.04224 82.7872 1.58508 82.2691 2.25546 82.2691H49.7657C50.4361 82.2691 50.9789 82.7872 50.9789 83.4269V102.336C50.9789 102.976 50.4361 103.494 49.7657 103.494Z" fill="#00C06B"/>
<g opacity="0.6">
<path d="M49.7657 103.494H2.25546C1.58508 103.494 1.04224 102.976 1.04224 102.336V83.4269C1.04224 82.7872 1.58508 82.2691 2.25546 82.2691H49.7657C50.4361 82.2691 50.9789 82.7872 50.9789 83.4269V102.336C50.9789 102.976 50.4361 103.494 49.7657 103.494Z" fill="white"/>
</g>
<g opacity="0.1">
<path d="M2.26327 82.2766H49.7657C50.4361 82.2766 50.979 82.7946 50.979 83.4343V89.4975L26.2167 94.1432C26.0651 94.1729 25.9095 94.1729 25.7579 94.1432L1.05005 89.4975V83.4343C1.05005 82.7946 1.59289 82.2766 2.26327 82.2766Z" fill="black"/>
</g>
<path d="M1.22878 74.5139H15.7408V72.191C15.7447 70.1924 17.4417 68.5731 19.5361 68.5694H32.5005C34.6011 68.5568 36.3136 70.1717 36.3268 72.1762C36.3268 72.1814 36.3268 72.1858 36.3268 72.191V74.5139H50.8311C51.4929 74.5139 52.0287 75.0252 52.0287 75.6568V87.093C52.0287 87.6384 51.6251 88.1075 51.0644 88.2136L26.2166 92.8371C26.0626 92.8667 25.9039 92.8667 25.7499 92.8371L0.96436 88.1839C0.403632 88.0778 0 87.6088 0 87.0633V75.6568C0 75.0252 0.535064 74.5131 1.1969 74.5131C1.207 74.5131 1.21867 74.5139 1.22878 74.5139ZM33.4104 72.191C33.4104 71.7101 33.0044 71.319 32.5005 71.3153H19.5361C19.0337 71.319 18.6269 71.7042 18.6184 72.1836V74.5065H33.3948L33.4104 72.191Z" fill="#00C06B"/>
<g opacity="0.6">
<path d="M1.22878 74.5139H15.7408V72.191C15.7447 70.1924 17.4417 68.5731 19.5361 68.5694H32.5005C34.6011 68.5568 36.3136 70.1717 36.3268 72.1762C36.3268 72.1814 36.3268 72.1858 36.3268 72.191V74.5139H50.8311C51.4929 74.5139 52.0287 75.0252 52.0287 75.6568V87.093C52.0287 87.6384 51.6251 88.1075 51.0644 88.2136L26.2166 92.8371C26.0626 92.8667 25.9039 92.8667 25.7499 92.8371L0.96436 88.1839C0.403632 88.0778 0 87.6088 0 87.0633V75.6568C0 75.0252 0.535064 74.5131 1.1969 74.5131C1.207 74.5131 1.21867 74.5139 1.22878 74.5139ZM33.4104 72.191C33.4104 71.7101 33.0044 71.319 32.5005 71.3153H19.5361C19.0337 71.319 18.6269 71.7042 18.6184 72.1836V74.5065H33.3948L33.4104 72.191Z" fill="white"/>
</g>
<path d="M28.573 95.0264H23.4557C22.8203 95.0264 22.3047 94.5343 22.3047 93.928V90.8407C22.3047 90.2344 22.8203 89.7424 23.4557 89.7424H28.573C29.2084 89.7424 29.724 90.2344 29.724 90.8407V93.928C29.724 94.5343 29.2084 95.0264 28.573 95.0264Z" fill="#00C06B"/>
<g opacity="0.3">
<path d="M28.573 95.0264H23.4557C22.8203 95.0264 22.3047 94.5343 22.3047 93.928V90.8407C22.3047 90.2344 22.8203 89.7424 23.4557 89.7424H28.573C29.2084 89.7424 29.724 90.2344 29.724 90.8407V93.928C29.724 94.5343 29.2084 95.0264 28.573 95.0264Z" fill="white"/>
</g>
<path d="M49.7657 162.864H2.25546C1.58508 162.864 1.04224 162.346 1.04224 161.707V142.797C1.04224 142.158 1.58508 141.64 2.25546 141.64H49.7657C50.4361 141.64 50.9789 142.158 50.9789 142.797V161.707C50.9789 162.346 50.4361 162.864 49.7657 162.864Z" fill="#00C06B"/>
<g opacity="0.6">
<path d="M49.7657 162.864H2.25546C1.58508 162.864 1.04224 162.346 1.04224 161.707V142.797C1.04224 142.158 1.58508 141.64 2.25546 141.64H49.7657C50.4361 141.64 50.9789 142.158 50.9789 142.797V161.707C50.9789 162.346 50.4361 162.864 49.7657 162.864Z" fill="white"/>
</g>
<g opacity="0.1">
<path d="M2.26327 141.647H49.7657C50.4361 141.647 50.979 142.165 50.979 142.805V148.868L26.2167 153.514C26.0651 153.543 25.9095 153.543 25.7579 153.514L1.05005 148.868V142.805C1.05005 142.165 1.59289 141.647 2.26327 141.647Z" fill="black"/>
</g>
<path d="M1.22878 133.884H15.7408V131.561C15.7447 129.563 17.4417 127.944 19.5361 127.94H32.5005C34.6011 127.927 36.3136 129.542 36.3268 131.547C36.3268 131.552 36.3268 131.556 36.3268 131.561V133.884H50.8311C51.4929 133.884 52.0287 134.396 52.0287 135.027V146.463C52.0287 147.009 51.6251 147.478 51.0644 147.584L26.2166 152.207C26.0626 152.237 25.9039 152.237 25.7499 152.207L0.96436 147.554C0.403632 147.448 0 146.979 0 146.434V135.027C0 134.396 0.535064 133.884 1.1969 133.884C1.207 133.884 1.21867 133.884 1.22878 133.884ZM33.4104 131.561C33.4104 131.081 33.0044 130.689 32.5005 130.686H19.5361C19.0337 130.689 18.6269 131.075 18.6184 131.554V133.877H33.3948L33.4104 131.561Z" fill="#00C06B"/>
<g opacity="0.6">
<path d="M1.22878 133.884H15.7408V131.561C15.7447 129.563 17.4417 127.944 19.5361 127.94H32.5005C34.6011 127.927 36.3136 129.542 36.3268 131.547C36.3268 131.552 36.3268 131.556 36.3268 131.561V133.884H50.8311C51.4929 133.884 52.0287 134.396 52.0287 135.027V146.463C52.0287 147.009 51.6251 147.478 51.0644 147.584L26.2166 152.207C26.0626 152.237 25.9039 152.237 25.7499 152.207L0.96436 147.554C0.403632 147.448 0 146.979 0 146.434V135.027C0 134.396 0.535064 133.884 1.1969 133.884C1.207 133.884 1.21867 133.884 1.22878 133.884ZM33.4104 131.561C33.4104 131.081 33.0044 130.689 32.5005 130.686H19.5361C19.0337 130.689 18.6269 131.075 18.6184 131.554V133.877H33.3948L33.4104 131.561Z" fill="white"/>
</g>
<path d="M28.573 154.397H23.4557C22.8203 154.397 22.3047 153.905 22.3047 153.298V150.211C22.3047 149.605 22.8203 149.113 23.4557 149.113H28.573C29.2084 149.113 29.724 149.605 29.724 150.211V153.298C29.724 153.905 29.2084 154.397 28.573 154.397Z" fill="#00C06B"/>
<g opacity="0.3">
<path d="M28.573 154.397H23.4557C22.8203 154.397 22.3047 153.905 22.3047 153.298V150.211C22.3047 149.605 22.8203 149.113 23.4557 149.113H28.573C29.2084 149.113 29.724 149.605 29.724 150.211V153.298C29.724 153.905 29.2084 154.397 28.573 154.397Z" fill="white"/>
</g>
<path d="M118.204 40.413H70.6937C70.0233 40.413 69.4805 39.895 69.4805 39.2553V20.3458C69.4805 19.7061 70.0233 19.1881 70.6937 19.1881H118.204C118.874 19.1881 119.417 19.7061 119.417 20.3458V39.2553C119.417 39.895 118.874 40.413 118.204 40.413Z" fill="#00C06B"/>
<g opacity="0.6">
<path d="M118.204 40.413H70.6937C70.0233 40.413 69.4805 39.895 69.4805 39.2553V20.3458C69.4805 19.7061 70.0233 19.1881 70.6937 19.1881H118.204C118.874 19.1881 119.417 19.7061 119.417 20.3458V39.2553C119.417 39.895 118.874 40.413 118.204 40.413Z" fill="white"/>
</g>
<g opacity="0.1">
<path d="M70.7017 19.1955H118.204C118.875 19.1955 119.417 19.7135 119.417 20.3532V26.4164L94.6552 31.0622C94.5035 31.0918 94.348 31.0918 94.1963 31.0622L69.4885 26.4164V20.3532C69.4885 19.7135 70.0314 19.1955 70.7017 19.1955Z" fill="black"/>
</g>
<path d="M69.6673 11.4328H84.1793V9.10995C84.1832 7.11139 85.8802 5.49206 87.9745 5.48835H100.939C103.04 5.47574 104.752 7.09061 104.765 9.09511C104.765 9.1003 104.765 9.10475 104.765 9.10995V11.4328H119.27C119.931 11.4328 120.467 11.9441 120.467 12.5757V24.0119C120.467 24.5574 120.064 25.0264 119.503 25.1325L94.655 29.756C94.5011 29.7857 94.3424 29.7857 94.1884 29.756L69.4028 25.1029C68.8421 24.9967 68.4385 24.5277 68.4385 23.9822V12.5757C68.4385 11.9441 68.9735 11.4321 69.6354 11.4321C69.6455 11.4321 69.6571 11.4328 69.6673 11.4328ZM101.849 9.10995C101.849 8.62905 101.443 8.23795 100.939 8.23424H87.9745C87.4721 8.23795 87.0654 8.62311 87.0568 9.10253V11.4254H101.833L101.849 9.10995Z" fill="#00C06B"/>
<g opacity="0.6">
<path d="M69.6673 11.4328H84.1793V9.10995C84.1832 7.11139 85.8802 5.49206 87.9745 5.48835H100.939C103.04 5.47574 104.752 7.09061 104.765 9.09511C104.765 9.1003 104.765 9.10475 104.765 9.10995V11.4328H119.27C119.931 11.4328 120.467 11.9441 120.467 12.5757V24.0119C120.467 24.5574 120.064 25.0264 119.503 25.1325L94.655 29.756C94.5011 29.7857 94.3424 29.7857 94.1884 29.756L69.4028 25.1029C68.8421 24.9967 68.4385 24.5277 68.4385 23.9822V12.5757C68.4385 11.9441 68.9735 11.4321 69.6354 11.4321C69.6455 11.4321 69.6571 11.4328 69.6673 11.4328ZM101.849 9.10995C101.849 8.62905 101.443 8.23795 100.939 8.23424H87.9745C87.4721 8.23795 87.0654 8.62311 87.0568 9.10253V11.4254H101.833L101.849 9.10995Z" fill="white"/>
</g>
<path d="M97.0115 31.9453H91.8942C91.2588 31.9453 90.7432 31.4532 90.7432 30.8469V27.7597C90.7432 27.1533 91.2588 26.6613 91.8942 26.6613H97.0115C97.6469 26.6613 98.1625 27.1533 98.1625 27.7597V30.8469C98.1625 31.4532 97.6469 31.9453 97.0115 31.9453Z" fill="#00C06B"/>
<g opacity="0.3">
<path d="M97.0115 31.9453H91.8942C91.2588 31.9453 90.7432 31.4532 90.7432 30.8469V27.7597C90.7432 27.1533 91.2588 26.6613 91.8942 26.6613H97.0115C97.6469 26.6613 98.1625 27.1533 98.1625 27.7597V30.8469C98.1625 31.4532 97.6469 31.9453 97.0115 31.9453Z" fill="white"/>
</g>
<path d="M118.204 162.864H70.6937C70.0233 162.864 69.4805 162.346 69.4805 161.707V142.797C69.4805 142.158 70.0233 141.64 70.6937 141.64H118.204C118.874 141.64 119.417 142.158 119.417 142.797V161.707C119.417 162.346 118.874 162.864 118.204 162.864Z" fill="#00C06B"/>
<g opacity="0.6">
<path d="M118.204 162.864H70.6937C70.0233 162.864 69.4805 162.346 69.4805 161.707V142.797C69.4805 142.158 70.0233 141.64 70.6937 141.64H118.204C118.874 141.64 119.417 142.158 119.417 142.797V161.707C119.417 162.346 118.874 162.864 118.204 162.864Z" fill="white"/>
</g>
<g opacity="0.1">
<path d="M70.7017 141.647H118.204C118.875 141.647 119.417 142.165 119.417 142.805V148.868L94.6552 153.514C94.5035 153.543 94.348 153.543 94.1963 153.514L69.4885 148.868V142.805C69.4885 142.165 70.0314 141.647 70.7017 141.647Z" fill="black"/>
</g>
<path d="M69.6673 133.884H84.1793V131.561C84.1832 129.563 85.8802 127.944 87.9745 127.94H100.939C103.04 127.927 104.752 129.542 104.765 131.547C104.765 131.552 104.765 131.556 104.765 131.561V133.884H119.27C119.931 133.884 120.467 134.396 120.467 135.027V146.463C120.467 147.009 120.064 147.478 119.503 147.584L94.655 152.207C94.5011 152.237 94.3424 152.237 94.1884 152.207L69.4028 147.554C68.8421 147.448 68.4385 146.979 68.4385 146.434V135.027C68.4385 134.396 68.9735 133.884 69.6354 133.884C69.6455 133.884 69.6571 133.884 69.6673 133.884ZM101.849 131.561C101.849 131.081 101.443 130.689 100.939 130.686H87.9745C87.4721 130.689 87.0654 131.075 87.0568 131.554V133.877H101.833L101.849 131.561Z" fill="#00C06B"/>
<g opacity="0.6">
<path d="M69.6673 133.884H84.1793V131.561C84.1832 129.563 85.8802 127.944 87.9745 127.94H100.939C103.04 127.927 104.752 129.542 104.765 131.547C104.765 131.552 104.765 131.556 104.765 131.561V133.884H119.27C119.931 133.884 120.467 134.396 120.467 135.027V146.463C120.467 147.009 120.064 147.478 119.503 147.584L94.655 152.207C94.5011 152.237 94.3424 152.237 94.1884 152.207L69.4028 147.554C68.8421 147.448 68.4385 146.979 68.4385 146.434V135.027C68.4385 134.396 68.9735 133.884 69.6354 133.884C69.6455 133.884 69.6571 133.884 69.6673 133.884ZM101.849 131.561C101.849 131.081 101.443 130.689 100.939 130.686H87.9745C87.4721 130.689 87.0654 131.075 87.0568 131.554V133.877H101.833L101.849 131.561Z" fill="white"/>
</g>
<path d="M97.0115 154.397H91.8942C91.2588 154.397 90.7432 153.905 90.7432 153.298V150.211C90.7432 149.605 91.2588 149.113 91.8942 149.113H97.0115C97.6469 149.113 98.1625 149.605 98.1625 150.211V153.298C98.1625 153.905 97.6469 154.397 97.0115 154.397Z" fill="#00C06B"/>
<g opacity="0.3">
<path d="M97.0115 154.397H91.8942C91.2588 154.397 90.7432 153.905 90.7432 153.298V150.211C90.7432 149.605 91.2588 149.113 91.8942 149.113H97.0115C97.6469 149.113 98.1625 149.605 98.1625 150.211V153.298C98.1625 153.905 97.6469 154.397 97.0115 154.397Z" fill="white"/>
</g>
<path d="M186.642 40.413H139.132C138.462 40.413 137.919 39.895 137.919 39.2553V20.3458C137.919 19.7061 138.462 19.1881 139.132 19.1881H186.642C187.313 19.1881 187.856 19.7061 187.856 20.3458V39.2553C187.856 39.895 187.313 40.413 186.642 40.413Z" fill="#00C06B"/>
<g opacity="0.6">
<path d="M186.642 40.413H139.132C138.462 40.413 137.919 39.895 137.919 39.2553V20.3458C137.919 19.7061 138.462 19.1881 139.132 19.1881H186.642C187.313 19.1881 187.856 19.7061 187.856 20.3458V39.2553C187.856 39.895 187.313 40.413 186.642 40.413Z" fill="white"/>
</g>
<g opacity="0.1">
<path d="M139.14 19.1955H186.642C187.313 19.1955 187.856 19.7135 187.856 20.3532V26.4164L163.093 31.0622C162.942 31.0918 162.786 31.0918 162.635 31.0622L137.927 26.4164V20.3532C137.927 19.7135 138.47 19.1955 139.14 19.1955Z" fill="black"/>
</g>
<path d="M138.106 11.4328H152.618V9.10995C152.622 7.11139 154.319 5.49206 156.413 5.48835H169.377C171.478 5.47574 173.191 7.09061 173.204 9.09511C173.204 9.1003 173.204 9.10475 173.204 9.10995V11.4328H187.708C188.37 11.4328 188.906 11.9441 188.906 12.5757V24.0119C188.906 24.5574 188.502 25.0264 187.941 25.1325L163.094 29.756C162.94 29.7857 162.781 29.7857 162.627 29.756L137.841 25.1029C137.281 24.9967 136.877 24.5277 136.877 23.9822V12.5757C136.877 11.9441 137.412 11.4321 138.074 11.4321C138.084 11.4321 138.096 11.4328 138.106 11.4328ZM170.287 9.10995C170.287 8.62905 169.881 8.23795 169.377 8.23424H156.413C155.911 8.23795 155.504 8.62311 155.495 9.10253V11.4254H170.272L170.287 9.10995Z" fill="#00C06B"/>
<g opacity="0.6">
<path d="M138.106 11.4328H152.618V9.10995C152.622 7.11139 154.319 5.49206 156.413 5.48835H169.377C171.478 5.47574 173.191 7.09061 173.204 9.09511C173.204 9.1003 173.204 9.10475 173.204 9.10995V11.4328H187.708C188.37 11.4328 188.906 11.9441 188.906 12.5757V24.0119C188.906 24.5574 188.502 25.0264 187.941 25.1325L163.094 29.756C162.94 29.7857 162.781 29.7857 162.627 29.756L137.841 25.1029C137.281 24.9967 136.877 24.5277 136.877 23.9822V12.5757C136.877 11.9441 137.412 11.4321 138.074 11.4321C138.084 11.4321 138.096 11.4328 138.106 11.4328ZM170.287 9.10995C170.287 8.62905 169.881 8.23795 169.377 8.23424H156.413C155.911 8.23795 155.504 8.62311 155.495 9.10253V11.4254H170.272L170.287 9.10995Z" fill="white"/>
</g>
<path d="M165.45 31.9453H160.333C159.697 31.9453 159.182 31.4532 159.182 30.8469V27.7597C159.182 27.1533 159.697 26.6613 160.333 26.6613H165.45C166.085 26.6613 166.601 27.1533 166.601 27.7597V30.8469C166.601 31.4532 166.085 31.9453 165.45 31.9453Z" fill="#00C06B"/>
<g opacity="0.3">
<path d="M165.45 31.9453H160.333C159.697 31.9453 159.182 31.4532 159.182 30.8469V27.7597C159.182 27.1533 159.697 26.6613 160.333 26.6613H165.45C166.085 26.6613 166.601 27.1533 166.601 27.7597V30.8469C166.601 31.4532 166.085 31.9453 165.45 31.9453Z" fill="white"/>
</g>
<path d="M186.642 103.494H139.132C138.462 103.494 137.919 102.976 137.919 102.336V83.4269C137.919 82.7872 138.462 82.2691 139.132 82.2691H186.642C187.313 82.2691 187.856 82.7872 187.856 83.4269V102.336C187.856 102.976 187.313 103.494 186.642 103.494Z" fill="#00C06B"/>
<g opacity="0.6">
<path d="M186.642 103.494H139.132C138.462 103.494 137.919 102.976 137.919 102.336V83.4269C137.919 82.7872 138.462 82.2691 139.132 82.2691H186.642C187.313 82.2691 187.856 82.7872 187.856 83.4269V102.336C187.856 102.976 187.313 103.494 186.642 103.494Z" fill="white"/>
</g>
<g opacity="0.1">
<path d="M139.14 82.2766H186.642C187.313 82.2766 187.856 82.7946 187.856 83.4343V89.4975L163.093 94.1432C162.942 94.1729 162.786 94.1729 162.635 94.1432L137.927 89.4975V83.4343C137.927 82.7946 138.47 82.2766 139.14 82.2766Z" fill="black"/>
</g>
<path d="M138.106 74.5139H152.618V72.191C152.622 70.1924 154.319 68.5731 156.413 68.5694H169.377C171.478 68.5568 173.191 70.1717 173.204 72.1762C173.204 72.1814 173.204 72.1858 173.204 72.191V74.5139H187.708C188.37 74.5139 188.906 75.0252 188.906 75.6568V87.093C188.906 87.6384 188.502 88.1075 187.941 88.2136L163.094 92.8371C162.94 92.8667 162.781 92.8667 162.627 92.8371L137.841 88.1839C137.281 88.0778 136.877 87.6088 136.877 87.0633V75.6568C136.877 75.0252 137.412 74.5131 138.074 74.5131C138.084 74.5131 138.096 74.5139 138.106 74.5139ZM170.287 72.191C170.287 71.7101 169.881 71.319 169.377 71.3153H156.413C155.911 71.319 155.504 71.7042 155.495 72.1836V74.5065H170.272L170.287 72.191Z" fill="#00C06B"/>
<g opacity="0.6">
<path d="M138.106 74.5139H152.618V72.191C152.622 70.1924 154.319 68.5731 156.413 68.5694H169.377C171.478 68.5568 173.191 70.1717 173.204 72.1762C173.204 72.1814 173.204 72.1858 173.204 72.191V74.5139H187.708C188.37 74.5139 188.906 75.0252 188.906 75.6568V87.093C188.906 87.6384 188.502 88.1075 187.941 88.2136L163.094 92.8371C162.94 92.8667 162.781 92.8667 162.627 92.8371L137.841 88.1839C137.281 88.0778 136.877 87.6088 136.877 87.0633V75.6568C136.877 75.0252 137.412 74.5131 138.074 74.5131C138.084 74.5131 138.096 74.5139 138.106 74.5139ZM170.287 72.191C170.287 71.7101 169.881 71.319 169.377 71.3153H156.413C155.911 71.319 155.504 71.7042 155.495 72.1836V74.5065H170.272L170.287 72.191Z" fill="white"/>
</g>
<path d="M165.45 95.0264H160.333C159.697 95.0264 159.182 94.5343 159.182 93.928V90.8407C159.182 90.2344 159.697 89.7424 160.333 89.7424H165.45C166.085 89.7424 166.601 90.2344 166.601 90.8407V93.928C166.601 94.5343 166.085 95.0264 165.45 95.0264Z" fill="#00C06B"/>
<g opacity="0.3">
<path d="M165.45 95.0264H160.333C159.697 95.0264 159.182 94.5343 159.182 93.928V90.8407C159.182 90.2344 159.697 89.7424 160.333 89.7424H165.45C166.085 89.7424 166.601 90.2344 166.601 90.8407V93.928C166.601 94.5343 166.085 95.0264 165.45 95.0264Z" fill="white"/>
</g>
<path d="M186.642 162.864H139.132C138.462 162.864 137.919 162.346 137.919 161.707V142.797C137.919 142.158 138.462 141.64 139.132 141.64H186.642C187.313 141.64 187.856 142.158 187.856 142.797V161.707C187.856 162.346 187.313 162.864 186.642 162.864Z" fill="#00C06B"/>
<g opacity="0.6">
<path d="M186.642 162.864H139.132C138.462 162.864 137.919 162.346 137.919 161.707V142.797C137.919 142.158 138.462 141.64 139.132 141.64H186.642C187.313 141.64 187.856 142.158 187.856 142.797V161.707C187.856 162.346 187.313 162.864 186.642 162.864Z" fill="white"/>
</g>
<g opacity="0.1">
<path d="M139.14 141.647H186.642C187.313 141.647 187.856 142.165 187.856 142.805V148.868L163.093 153.514C162.942 153.543 162.786 153.543 162.635 153.514L137.927 148.868V142.805C137.927 142.165 138.47 141.647 139.14 141.647Z" fill="black"/>
</g>
<path d="M138.106 133.884H152.618V131.561C152.622 129.563 154.319 127.944 156.413 127.94H169.377C171.478 127.927 173.191 129.542 173.204 131.547C173.204 131.552 173.204 131.556 173.204 131.561V133.884H187.708C188.37 133.884 188.906 134.396 188.906 135.027V146.463C188.906 147.009 188.502 147.478 187.941 147.584L163.094 152.207C162.94 152.237 162.781 152.237 162.627 152.207L137.841 147.554C137.281 147.448 136.877 146.979 136.877 146.434V135.027C136.877 134.396 137.412 133.884 138.074 133.884C138.084 133.884 138.096 133.884 138.106 133.884ZM170.287 131.561C170.287 131.081 169.881 130.689 169.377 130.686H156.413C155.911 130.689 155.504 131.075 155.495 131.554V133.877H170.272L170.287 131.561Z" fill="#00C06B"/>
<g opacity="0.6">
<path d="M138.106 133.884H152.618V131.561C152.622 129.563 154.319 127.944 156.413 127.94H169.377C171.478 127.927 173.191 129.542 173.204 131.547C173.204 131.552 173.204 131.556 173.204 131.561V133.884H187.708C188.37 133.884 188.906 134.396 188.906 135.027V146.463C188.906 147.009 188.502 147.478 187.941 147.584L163.094 152.207C162.94 152.237 162.781 152.237 162.627 152.207L137.841 147.554C137.281 147.448 136.877 146.979 136.877 146.434V135.027C136.877 134.396 137.412 133.884 138.074 133.884C138.084 133.884 138.096 133.884 138.106 133.884ZM170.287 131.561C170.287 131.081 169.881 130.689 169.377 130.686H156.413C155.911 130.689 155.504 131.075 155.495 131.554V133.877H170.272L170.287 131.561Z" fill="white"/>
</g>
<path d="M165.45 154.397H160.333C159.697 154.397 159.182 153.905 159.182 153.298V150.211C159.182 149.605 159.697 149.113 160.333 149.113H165.45C166.085 149.113 166.601 149.605 166.601 150.211V153.298C166.601 153.905 166.085 154.397 165.45 154.397Z" fill="#00C06B"/>
<g opacity="0.3">
<path d="M165.45 154.397H160.333C159.697 154.397 159.182 153.905 159.182 153.298V150.211C159.182 149.605 159.697 149.113 160.333 149.113H165.45C166.085 149.113 166.601 149.605 166.601 150.211V153.298C166.601 153.905 166.085 154.397 165.45 154.397Z" fill="white"/>
</g>
<path d="M235.077 87.0002C235.638 88.8806 235.986 90.6272 236.436 92.4663C236.886 94.3054 237.13 96.1023 237.405 97.9496C237.962 101.695 238.185 105.479 238.071 109.26C238.063 109.733 238.009 110.237 237.97 110.75L237.911 111.494C237.887 111.625 237.869 111.72 237.841 111.874L237.753 112.349C237.575 113.461 237.269 114.552 236.844 115.602C236.115 117.428 235.232 119.195 234.202 120.885C232.259 124.099 230.017 127.139 227.501 129.968L223.9 127.742C225.382 124.555 226.883 121.303 228.148 118.133C228.761 116.615 229.282 115.064 229.709 113.49C229.874 112.844 229.98 112.186 230.024 111.523L230.025 111.048L230.026 110.446C230.013 110.044 230.031 109.648 230.005 109.236C229.837 105.882 229.437 102.542 228.804 99.2379C228.515 97.554 228.163 95.8671 227.813 94.1729C227.463 92.4787 227.045 90.7656 226.656 89.193L235.077 87.0002Z" fill="#F6C8C8"/>
<path d="M224.248 126.798L220.748 129.073L226.726 133.093C226.726 133.093 228.79 130.728 228.142 128.162L224.248 126.798Z" fill="#F6C8C8"/>
<path d="M217.578 132.812L222.68 135.886L226.731 133.064L220.748 129.073L217.578 132.812Z" fill="#F6C8C8"/>
<path d="M234.778 82.8504C239.252 85.8639 238.489 101.229 238.489 101.229L226.492 103.544C225.503 99.182 224.866 94.7546 224.588 90.2994C224.272 83.2529 230.183 79.7261 234.778 82.8504Z" fill="#293524"/>
<path d="M205.458 63.2558C205.458 63.6937 205.217 64.0499 204.914 64.0499C204.611 64.0499 204.37 63.6937 204.37 63.2558C204.37 62.8179 204.611 62.4543 204.914 62.4543C205.217 62.4543 205.458 62.8105 205.458 63.2558Z" fill="#F6C8C8"/>
<path d="M205.256 64.0499C204.709 65.3939 203.971 66.6599 203.063 67.8125C203.7 68.2474 204.505 68.3913 205.264 68.2058L205.256 64.0499Z" fill="#F6C8C8"/>
<path d="M207.091 60.8067C207.242 60.803 207.36 60.6828 207.356 60.5396C207.354 60.4602 207.313 60.3867 207.247 60.3392C206.55 59.8405 205.645 59.6913 204.813 59.9385C204.668 59.9763 204.582 60.118 204.621 60.2568C204.661 60.3956 204.81 60.4772 204.956 60.4394C204.974 60.4349 204.991 60.429 205.007 60.4208C205.669 60.2331 206.385 60.357 206.936 60.7548C206.979 60.7889 207.035 60.8075 207.091 60.8067Z" fill="#F6C8C8"/>
<path d="M221.191 66.5657C220.367 70.5583 219.55 77.8683 222.474 80.5251C222.474 80.5251 221.331 84.5697 213.57 84.5697C205.015 84.5697 209.487 80.5251 209.487 80.5251C214.153 79.4639 214.028 76.1614 213.212 73.1038L221.191 66.5657Z" fill="#F6C8C8"/>
<path d="M223.976 78.0242C224.621 78.2245 223.781 81.8907 223.781 81.8907C223.781 81.8907 222.716 84.451 209.479 83.5605C208.46 83.4862 208.849 79.9685 209.821 79.4565C212.956 77.8238 221.891 77.3711 223.976 78.0242Z" fill="#1F0202"/>
<path d="M220.865 62.291C220.522 67.6937 220.616 70.87 217.754 73.6456C213.461 77.8164 206.469 75.3525 205.116 69.935C203.895 65.0814 204.665 57.0664 210.202 54.9068C214.148 53.3498 218.668 55.1384 220.3 58.9032C220.764 59.9741 220.958 61.1355 220.865 62.291Z" fill="#F6C8C8"/>
<path d="M225.437 57.2742C225.437 57.2742 228.416 58.1202 227.483 61.3633C226.075 66.2911 222.762 71.961 218.485 72.3172C213.157 72.7699 210.754 67.523 210.054 62.098C206.866 60.0127 204.502 58.0609 205.264 55.8938C206.43 52.5543 210.661 49.6748 217.396 50.4169C224.131 51.159 227.483 55.315 225.437 57.2742Z" fill="#1F0202"/>
<path d="M213.297 63.212C213.194 64.5523 212.631 65.8213 211.695 66.8254C210.451 68.1316 209.144 67.3152 208.927 65.7271C208.732 64.2873 209.137 61.8754 210.661 61.1556C212.185 60.4357 213.398 61.5942 213.297 63.212Z" fill="#F6C8C8"/>
<path d="M211.628 241.166C212.181 241.158 212.733 241.106 213.278 241.011C213.327 240.998 213.365 240.962 213.378 240.916C213.387 240.866 213.361 240.816 213.312 240.794C213.231 240.747 211.347 239.78 210.451 240.014C210.284 240.056 210.14 240.158 210.053 240.297C209.938 240.453 209.94 240.659 210.059 240.812C210.297 241.108 210.941 241.175 211.628 241.166ZM212.866 240.84C211.867 240.981 210.507 240.99 210.255 240.674C210.218 240.634 210.187 240.56 210.251 240.41C210.305 240.325 210.395 240.265 210.498 240.245C211.074 240.095 212.205 240.536 212.866 240.84Z" fill="#00C06B"/>
<path d="M213.219 241.013C213.246 241.02 213.273 241.019 213.3 241.012C213.334 240.984 213.352 240.944 213.35 240.902C213.349 240.848 213.177 239.507 212.491 238.993C212.286 238.838 212.021 238.768 211.758 238.799C211.407 238.837 211.315 239 211.287 239.136C211.2 239.7 212.5 240.763 213.146 241.027L213.219 241.013ZM211.885 238.994C212.048 238.997 212.205 239.049 212.332 239.144C212.744 239.569 213.005 240.102 213.083 240.669C212.413 240.31 211.532 239.472 211.601 239.133C211.601 239.133 211.6 239.024 211.849 239.001L211.885 238.994Z" fill="#00C06B"/>
<path d="M219.15 240.827L213.787 240.891L213.096 229.356L218.467 229.292L219.15 240.827Z" fill="#F6C8C8"/>
<path d="M213.809 240.313L219.655 240.244C219.873 240.241 220.065 240.38 220.112 240.578L221.23 244.994C221.331 245.379 221.078 245.768 220.662 245.863C220.6 245.877 220.538 245.884 220.474 245.884C218.355 245.909 215.298 245.803 212.639 245.835C209.534 245.872 206.853 246.059 203.207 246.102C201.015 246.128 200.367 244.067 201.285 243.867C205.476 242.969 208.902 242.833 212.499 240.715C212.887 240.471 213.341 240.332 213.809 240.313Z" fill="#1F0202"/>
<g opacity="0.2">
<path d="M213.103 229.362L213.451 235.306L218.822 235.242L218.467 229.299L213.103 229.362Z" fill="black"/>
</g>
<path d="M212.965 129.924C212.965 129.924 205.298 161.824 204.925 177.02C204.511 194.069 211.434 234.177 211.434 234.177L220.532 234.069C220.532 234.069 221.123 193.559 221.33 178.033C221.549 161.109 231.839 129.701 231.839 129.701L212.965 129.924Z" fill="#00C06B"/>
<g opacity="0.2">
<path d="M212.965 129.924C212.965 129.924 205.298 161.824 204.925 177.02C204.511 194.069 211.434 234.177 211.434 234.177L220.532 234.069C220.532 234.069 221.123 193.559 221.33 178.033C221.549 161.109 231.839 129.701 231.839 129.701L212.965 129.924Z" fill="black"/>
</g>
<path d="M209.644 230.834C209.6 230.835 210.202 234.334 210.202 234.334L221.264 234.203L221.523 231.074L209.644 230.834Z" fill="#1F0202"/>
<g opacity="0.4">
<path d="M209.644 230.834C209.6 230.835 210.202 234.334 210.202 234.334L221.264 234.203L221.523 231.074L209.644 230.834Z" fill="#FAFAFA"/>
</g>
<path d="M171.887 246.007C172.462 246.126 173.048 246.198 173.636 246.222C173.692 246.22 173.741 246.19 173.767 246.143C173.788 246.092 173.772 246.034 173.728 245.998C173.656 245.93 171.956 244.464 170.967 244.507C170.782 244.513 170.607 244.588 170.48 244.716C170.32 244.856 170.269 245.076 170.353 245.267C170.522 245.637 171.173 245.857 171.887 246.007ZM173.255 245.944C172.183 245.864 170.771 245.56 170.592 245.165C170.564 245.114 170.552 245.028 170.657 244.883C170.734 244.804 170.842 244.761 170.955 244.763C171.59 244.736 172.649 245.468 173.255 245.944Z" fill="#00C06B"/>
<path d="M173.576 246.21C173.602 246.223 173.631 246.229 173.66 246.227C173.702 246.206 173.732 246.167 173.74 246.123C173.753 246.065 173.925 244.597 173.347 243.89C173.174 243.677 172.917 243.54 172.637 243.513C172.264 243.472 172.125 243.626 172.061 243.764C171.824 244.345 172.895 245.778 173.497 246.209L173.576 246.21ZM172.718 243.75C172.886 243.79 173.036 243.883 173.143 244.014C173.458 244.562 173.592 245.189 173.524 245.811C172.924 245.275 172.229 244.179 172.388 243.833C172.388 243.833 172.415 243.717 172.678 243.749L172.718 243.75Z" fill="#00C06B"/>
<path d="M179.773 247.382L174.197 246.211L176.479 233.757L182.062 234.929L179.773 247.382Z" fill="#F6C8C8"/>
<path d="M174.37 245.602L180.446 246.878C180.673 246.924 180.835 247.117 180.833 247.339L180.844 252.302C180.849 252.737 180.484 253.093 180.029 253.099C179.962 253.1 179.894 253.093 179.828 253.077C177.626 252.615 174.487 251.796 171.722 251.216C168.493 250.539 165.667 250.119 161.877 249.323C159.599 248.845 159.463 246.499 160.467 246.497C165.043 246.509 168.628 247.155 172.907 245.728C173.373 245.557 173.879 245.513 174.37 245.602Z" fill="#1F0202"/>
<g opacity="0.2">
<path d="M176.485 233.765L175.3 240.181L180.883 241.354L182.06 234.936L176.485 233.765Z" fill="black"/>
</g>
<path d="M219.519 137.511C219.505 135.898 216.129 139.049 212.59 143.476C209.008 150.214 205.06 157.939 202.226 164.73C211.351 158.703 219.576 140.866 219.519 137.511Z" fill="#00C06B"/>
<path d="M202.187 127.749C202.187 127.749 185.948 159.978 181.613 176.089C176.753 194.164 173.503 238.512 173.503 238.512L182.96 240.497C182.96 240.497 194.101 197.457 198.352 180.956C202.977 162.968 221.806 131.868 221.806 131.868L202.187 127.749Z" fill="#00C06B"/>
<g opacity="0.2">
<path d="M202.187 127.749C202.187 127.749 185.948 159.978 181.613 176.089C176.753 194.164 173.503 238.512 173.503 238.512L182.96 240.497C182.96 240.497 194.101 197.457 198.352 180.956C202.977 162.968 221.806 131.868 221.806 131.868L202.187 127.749Z" fill="black"/>
</g>
<path d="M172.517 234.536C172.471 234.527 172.185 238.395 172.185 238.395L183.684 240.809L184.766 237.533L172.517 234.536Z" fill="#1F0202"/>
<g opacity="0.4">
<path d="M172.517 234.536C172.471 234.527 172.185 238.395 172.185 238.395L183.684 240.809L184.766 237.533L172.517 234.536Z" fill="#FAFAFA"/>
</g>
<path d="M200.699 83.1523C200.699 83.1523 194.617 89.7053 200.356 130.278H230.92C231.13 125.825 228.183 103.962 232.709 82.8703C229.329 82.2499 225.91 81.8387 222.474 81.6383C218.149 81.4009 213.812 81.4009 209.487 81.6383C206.521 81.9233 203.582 82.4295 200.699 83.1523Z" fill="#293524"/>
<g opacity="0.2">
<path d="M107.485 122.529C138.405 123.037 163.904 99.5294 164.436 70.0237C164.968 40.5179 140.333 16.186 109.413 15.678C78.5019 15.1704 53.0086 38.6642 52.4626 68.1607C51.9169 97.6663 76.5405 122.008 107.461 122.529C107.468 122.529 107.477 122.529 107.485 122.529Z" fill="#00C06B"/>
</g>
<g opacity="0.1">
<path d="M79.8862 23.1323L155.607 97.9357C156.069 97.2445 156.509 96.5505 156.94 95.8554C159.708 91.3116 161.75 86.3982 162.996 81.2779L97.5901 16.6838C91.345 17.849 85.3565 20.0306 79.8862 23.1323Z" fill="white"/>
</g>
<g opacity="0.1">
<path d="M56.5766 48.9357L127.758 119.28C135.811 116.457 143.077 111.906 148.995 105.979L71.2599 29.1457C64.8409 34.5817 59.817 41.3522 56.5766 48.9357Z" fill="white"/>
</g>
<path d="M237.177 145.519C237.257 144.167 236.973 142.818 236.352 141.601C235.902 140.706 235.206 139.946 234.337 139.399L229.404 136.283C226.127 134.194 222.821 132.147 219.515 130.099C216.209 128.052 212.876 126.031 209.56 123.998C206.245 121.964 202.893 119.971 199.528 118.007C192.82 114.045 186.054 110.161 179.23 106.354C175.82 104.437 172.395 102.577 168.934 100.742C166.837 99.6381 165.996 97.1718 167.01 95.1015C182.074 64.2377 168.067 27.5634 135.724 13.1882C103.38 -1.18697 64.9467 12.1794 49.8824 43.0433C34.8181 73.9071 48.8254 110.581 81.1689 124.957C106.772 136.336 137.156 130.526 156.186 110.609C157.799 108.914 160.512 108.703 162.391 110.126C165.505 112.456 168.637 114.757 171.79 117.027C178.091 121.567 184.457 126.02 190.885 130.386C194.091 132.593 197.352 134.74 200.548 136.908C203.743 139.076 207.022 141.21 210.284 143.349C213.546 145.488 216.767 147.585 220.084 149.671L224.999 152.808C225.862 153.365 226.867 153.685 227.907 153.736C229.322 153.814 230.733 153.542 232.005 152.947C235.084 151.628 237.096 148.739 237.177 145.519ZM80.2186 109.575C56.7825 94.6935 50.4264 64.4998 66.0212 42.1359C81.616 19.772 113.257 13.7067 136.693 28.588C160.129 43.4694 166.485 73.663 150.891 96.027C150.889 96.0297 150.887 96.0325 150.885 96.0352C135.291 118.395 103.654 124.458 80.2229 109.578C80.2215 109.577 80.22 109.576 80.2186 109.575Z" fill="#00C06B"/>
<g opacity="0.2">
<path d="M206.797 92.2396C205.957 88.1399 202.827 86.4735 199.148 88.3911C197.952 92.1197 196.64 98.2061 195.865 108.018L201.788 108.698C201.788 108.698 208.032 98.3413 206.797 92.2396Z" fill="black"/>
</g>
<path d="M205.905 90.4906C205.391 92.4326 204.809 94.1791 204.178 95.9944C203.547 97.8098 202.861 99.5734 202.111 101.344C200.613 104.967 198.77 108.452 196.605 111.754C196.043 112.605 195.413 113.433 194.752 114.256C194.414 114.671 194.075 115.086 193.699 115.488C193.205 116.051 192.645 116.557 192.028 116.995C190.836 117.806 189.477 118.365 188.041 118.636C186.873 118.871 185.683 118.988 184.489 118.983C182.359 118.972 180.237 118.735 178.162 118.276C177.145 118.07 176.159 117.821 175.205 117.529C174.225 117.236 173.301 116.942 172.302 116.556L173.351 112.585C176.89 112.879 180.452 112.817 183.978 112.401C184.699 112.291 185.408 112.119 186.095 111.885C186.544 111.752 186.953 111.517 187.286 111.201C187.217 111.245 187.901 110.424 188.318 109.832C188.736 109.24 189.22 108.447 189.636 107.75C190.489 106.314 191.262 104.778 191.994 103.2C192.726 101.621 193.4 100.006 194.046 98.3646C194.692 96.7233 195.279 95.0596 195.902 93.3556C196.525 91.6516 197.039 89.949 197.537 88.3567L205.905 90.4906Z" fill="#F6C8C8"/>
<path d="M208.887 87.7609C209.813 92.8967 201.338 106.816 201.338 106.816L188.138 101.855C189.605 97.3055 191.626 92.9366 194.162 88.8378C199.805 80.1958 207.774 81.5695 208.887 87.7609Z" fill="#293524"/>
<path d="M173.541 112.631L167.145 111.684L169.366 118.431C169.366 118.431 171.928 119.084 174.529 115.986L177.137 113.696L174.606 112.875C174.258 112.765 173.902 112.683 173.541 112.631Z" fill="#F6C8C8"/>
<path d="M162.935 112.368L165.898 118.1L169.374 118.432L167.145 111.684L162.935 112.368Z" fill="#F6C8C8"/>
</svg>
